<mxfile host="app.diagrams.net" modified="2024-06-18T11:57:31.643Z" agent="Mozilla/5.0 (Windows NT 10.0; Win64; x64) AppleWebKit/537.36 (KHTML, like Gecko) Chrome/126.0.0.0 Safari/537.36 Edg/126.0.0.0" version="24.5.5" etag="rcGwCIvr7FKx0u9pEX4X" type="github">
  <diagram name="Page-1" id="q5uBL_FOhC7pizf-vAx_">
    <mxGraphModel>
      <root>
        <mxCell id="0" />
        <mxCell id="1" parent="0" />
      </root>
    </mxGraphModel>
  </diagram>
</mxfile>
